# xmcd
#
# Track frame offsets: 
#        150
#        13234
#        25440
#        37190
#        50975
#        63435
#        77320
#        90312
#        101185
#        116520
#        130495
#        144375
#        158232
#        173505
#        186105
#        198800
#        211225
#        223620
#
# Disc length: 3170 seconds
#
# Revision: 0
# Processed by: cddbd v1.5.1PL0 Copyright (c) Steve Scherf et al.
# Submitted via: ExactAudioCopy v0.95a4
#
DISCID=fd0c6012
DTITLE=George Formby - Let George Do It
DYEAR=1950
DGENRE=Formby
TTITLE0=The Window Cleaner
TTITLE1=They Can't Fool Me
TTITLE2=I Could Not Let The Stable Down
TTITLE3=Leaning On A Lamp Post
TTITLE4=Our Sergeant Major
TTITLE5=Sitting On The Ice In The Ice Rink
TTITLE6=It's No Use Looking At Me
TTITLE7=Chinese Laundry Blues
TTITLE8=Do De O Do
TTITLE9=Swimming' With The Wimmin'
TTITLE10=Grandad's Flanellette Nightshirt
TTITLE11=Oh! Don't The Wind Blow Cold
TTITLE12=Auntie Maggie's Recipie
TTITLE13=Count Your Blessings And Smile
TTITLE14=Any The Handy Man
TTITLE15=Mr Wu's A Window Cleaner Now
TTITLE16=I Don't Like It
TTITLE17=With My Little Stick Of Blackpool Rock
EXTD=
EXTT0=
EXTT1=
EXTT2=
EXTT3=
EXTT4=
EXTT5=
EXTT6=
EXTT7=
EXTT8=
EXTT9=
EXTT10=
EXTT11=
EXTT12=
EXTT13=
EXTT14=
EXTT15=
EXTT16=
EXTT17=
PLAYORDER=
